<?xml version="1.0" encoding="UTF-8" ?>
<!DOCTYPE svg PUBLIC "-//W3C//DTD SVG 1.1//EN" "http://www.w3.org/Graphics/SVG/1.1/DTD/svg11.dtd">
<svg width="297pt" height="294pt" viewBox="0 0 297 294" version="1.1" xmlns="http://www.w3.org/2000/svg">
<g id="#ffffffff">
</g>
<g id="#3d3d3bff">
<path fill="#3d3d3b" opacity="1.00" d=" M 27.61 0.00 L 269.42 0.00 C 276.27 1.22 283.00 4.03 287.92 9.08 C 292.98 13.99 295.79 20.74 297.00 27.60 L 297.00 160.40 C 295.87 166.80 293.39 173.10 288.89 177.90 C 282.91 184.54 273.97 188.18 265.06 188.00 C 215.91 187.98 166.76 188.03 117.60 187.98 C 117.66 184.01 117.94 180.04 118.27 176.08 C 163.18 175.89 208.09 176.06 253.00 176.00 C 258.02 175.93 263.05 176.22 268.05 175.83 C 275.28 175.20 281.75 169.90 284.00 163.04 C 285.30 159.17 284.98 155.02 285.02 150.99 C 284.96 110.97 285.04 70.94 284.98 30.91 C 285.17 20.83 276.17 11.84 266.09 12.03 C 190.06 11.95 114.03 12.04 38.00 11.99 C 32.95 12.03 27.59 11.52 22.92 13.84 C 16.40 16.82 11.99 23.74 12.02 30.91 C 11.95 70.94 12.04 110.97 11.98 150.99 C 12.03 155.48 11.60 160.22 13.56 164.40 C 14.64 166.86 16.51 168.86 17.67 171.26 C 18.12 175.82 17.68 180.42 17.68 184.99 C 8.00 180.51 1.49 170.83 0.00 160.38 L 0.00 27.57 C 1.20 20.96 3.80 14.43 8.59 9.59 C 13.55 4.25 20.51 1.23 27.61 0.00 Z" />
<path fill="#3d3d3b" opacity="1.00" d=" M 72.39 29.54 C 87.25 26.22 103.25 36.73 106.28 51.60 C 109.76 65.55 101.08 81.02 87.43 85.42 C 77.65 88.87 66.11 86.53 58.52 79.45 C 50.94 72.72 47.44 61.82 49.63 51.93 C 51.66 40.73 61.17 31.39 72.39 29.54 Z" />
<path fill="#3d3d3b" opacity="1.00" d=" M 212.49 73.45 C 213.28 72.29 214.16 71.18 215.09 70.12 C 203.13 94.99 190.65 119.63 178.40 144.36 C 175.93 149.23 172.67 156.31 166.09 155.40 C 162.06 152.58 162.61 146.90 165.23 143.32 C 180.98 120.03 196.76 96.75 212.49 73.45 Z" />
<path fill="#3d3d3b" opacity="1.00" d=" M 44.86 92.90 C 48.27 91.71 51.93 91.45 55.52 91.31 C 59.49 103.95 63.35 116.63 67.69 129.14 C 69.19 122.27 69.23 115.13 71.05 108.33 C 75.00 108.32 78.94 108.34 82.89 108.33 C 84.96 115.06 84.31 122.33 86.36 129.08 C 90.41 116.85 94.40 104.60 98.50 92.39 C 102.81 91.12 107.56 92.88 111.76 94.15 C 118.01 96.25 120.84 102.51 124.69 107.30 C 131.79 116.65 138.46 126.33 145.39 135.78 C 150.91 137.31 156.77 136.66 162.35 137.97 C 159.15 142.47 156.78 148.14 158.34 153.71 C 159.34 157.94 163.52 160.50 167.48 161.50 C 170.73 162.17 173.67 159.99 175.82 157.81 C 179.13 154.71 180.63 150.34 182.89 146.52 C 185.09 150.54 185.22 155.79 182.80 159.75 C 180.70 162.39 177.87 164.40 174.86 165.89 C 172.26 166.22 169.61 166.16 166.99 165.98 C 155.66 164.57 144.38 162.72 133.09 160.94 C 131.05 160.76 129.33 159.51 128.11 157.93 C 123.33 152.02 118.86 145.88 114.12 139.94 C 112.40 157.51 111.81 175.16 110.36 192.74 C 108.73 220.17 106.47 247.56 104.88 274.99 C 103.46 285.53 93.19 292.74 82.99 293.05 C 75.34 293.10 67.13 294.76 60.05 290.96 C 54.26 287.69 50.28 281.55 49.41 274.98 C 48.06 257.01 46.88 239.03 45.49 221.06 C 44.72 215.85 45.48 210.43 43.68 205.40 C 40.87 200.50 34.62 199.98 31.02 195.95 C 27.64 192.52 24.47 188.07 24.87 183.02 C 24.74 162.35 24.70 141.68 24.59 121.02 C 24.27 108.63 32.89 96.38 44.86 92.90 Z" />
<path fill="#3d3d3b" opacity="1.00" d=" M 64.75 91.14 C 72.99 91.16 81.23 91.14 89.47 91.14 C 87.88 95.54 85.39 99.54 83.63 103.88 C 79.20 104.31 74.74 104.15 70.29 103.98 C 68.56 99.65 66.32 95.54 64.75 91.14 Z" />
</g>
</svg>
